<?xml version="1.0" standalone="no"?>
<!DOCTYPE svg PUBLIC "-//W3C//DTD SVG 20010904//EN"
 "http://www.w3.org/TR/2001/REC-SVG-20010904/DTD/svg10.dtd">
<svg version="1.0" xmlns="http://www.w3.org/2000/svg"
 width="241.000000pt" height="241.000000pt" viewBox="0 0 241.000000 241.000000"
 preserveAspectRatio="xMidYMid meet">
<metadata>
Created by potrace 1.14, written by Peter Selinger 2001-2017
</metadata>
<g transform="translate(0.000000,241.000000) scale(0.100000,-0.100000)"
fill="#000000" stroke="none">
<path d="M160 1803 c-30 -24 -76 -55 -102 -69 -27 -13 -48 -27 -48 -31 0 -3
66 -166 146 -361 l147 -356 175 -235 c96 -130 224 -302 285 -383 l109 -148 57
44 c105 82 196 112 315 104 89 -7 168 -37 244 -92 l59 -43 281 379 282 379
138 337 c77 185 142 347 146 359 6 19 1 25 -36 44 -24 12 -70 43 -103 69 l-60
47 -227 -1 c-124 -1 -228 -3 -231 -6 -2 -3 -35 -83 -72 -178 -57 -147 -72
-175 -96 -187 -31 -17 -89 -20 -89 -6 0 24 14 41 35 41 24 0 49 24 59 57 7 22
-8 70 -66 218 l-24 60 -77 1 -77 0 0 -91 c0 -97 7 -115 47 -115 13 0 23 -4 23
-9 0 -5 3 -16 6 -24 7 -20 -28 -28 -71 -16 -51 14 -65 49 -65 161 l0 94 -52
-1 c-64 0 -65 -3 -67 -152 -1 -101 -1 -103 -25 -103 -23 0 -24 2 -31 129 l-7
128 -85 0 c-72 -1 -82 -3 -66 -14 56 -39 73 -66 73 -114 0 -103 -109 -164
-230 -129 -48 14 -77 38 -95 83 l-15 37 34 0 c25 0 35 -5 39 -19 13 -51 123
-73 174 -35 62 46 46 99 -37 127 -30 10 -79 28 -109 39 -50 19 -78 22 -305 24
l-251 2 -55 -45z m1199 -502 c20 -13 5 -50 -18 -44 -34 9 -61 -14 -61 -52 0
-34 1 -35 41 -35 36 0 40 -2 37 -22 -2 -19 -10 -24 -40 -26 l-38 -3 0 -150 0
-149 -30 0 c-30 0 -31 0 -29 53 1 28 1 96 0 150 -1 97 -1 97 -26 97 -20 0 -25
5 -25 25 0 20 5 25 25 25 20 0 25 5 25 24 0 46 22 88 54 102 36 15 65 17 85 5z
m-254 -36 c0 -27 -3 -30 -30 -30 -24 0 -31 5 -33 24 -4 27 13 42 43 39 15 -2
20 -11 20 -33z m-355 -185 l0 -210 110 0 110 0 0 -25 0 -25 -135 0 -135 0 0
235 0 235 25 0 25 0 0 -210z m350 -85 l0 -175 -25 0 -25 0 0 175 0 175 25 0
25 0 0 -175z m537 155 c39 -23 61 -64 70 -125 l6 -45 -127 0 -126 0 0 -25 c0
-82 120 -126 175 -65 19 21 50 26 60 10 11 -17 -25 -58 -66 -74 -54 -22 -87
-20 -139 7 -61 31 -85 74 -85 157 0 117 53 180 150 180 32 0 61 -7 82 -20z"/>
<path d="M1486 1089 c-14 -17 -26 -39 -26 -50 0 -17 8 -19 95 -19 l95 0 0 25
c0 42 -41 75 -94 75 -37 0 -48 -5 -70 -31z"/>
<path d="M1553 1836 c2 -6 14 -42 27 -81 12 -38 26 -73 29 -78 4 -4 17 23 28
60 38 121 41 109 -27 109 -40 1 -60 -3 -57 -10z"/>
</g>
</svg>
